# AST/ASF file generated using VICON BodyLanguage
# -----------------------------------------------
:version 1.10
:name VICON
:units
  mass 1.0
  length 0.45
  angle deg
:documentation
   .ast/.asf automatically generated from VICON data using
   VICON BodyBuilder and BodyLanguage model FoxedUp or BRILLIANT.MOD
:root
   order TX TY TZ RX RY RZ
   axis XYZ
   position 0 0 0  
   orientation 0 0 0 
:bonedata
  begin
     id 1 
     name lhipjoint
     direction 0.653368 -0.678499 0.335782 
     length 2.51848 
     axis 0 0 0  XYZ
  end
  begin
     id 2 
     name lfemur
     direction 0.34202 -0.939693 0  
     length 6.57749  
     axis 0 0 20  XYZ
    dof rx ry rz
    limits (-160.0 20.0)
           (-70.0 70.0)
           (-60.0 70.0)
  end
  begin
     id 3 
     name ltibia
     direction 0.34202 -0.939693 0   
     length 7.94618   
     axis 0 0 20   XYZ
    dof rx
    limits (-10.0 170.0)
  end
  begin
     id 4 
     name lfoot
     direction 0.0811271 -0.222895 0.971461   
     length 2.31339   
     axis -90 7.62852e-016 20   XYZ
    dof rx rz
    limits (-45.0 90.0)
           (-70.0 20.0)
  end
  begin
     id 5 
     name ltoes
     direction 1.53568e-011 -4.21885e-011 1   
     length 1.15935   
     axis -90 7.62852e-016 20   XYZ
    dof rx
    limits (-90.0 20.0)
  end
  begin
     id 6 
     name rhipjoint
     direction -0.640058 -0.688614 0.340788   
     length 2.48149  
     axis 0 0 0  XYZ 
  end
  begin
     id 7 
     name rfemur
     direction -0.34202 -0.939693 0   
     length 6.57875   
     axis 0 0 -20   XYZ
    dof rx ry rz
    limits (-160.0 20.0)
           (-70.0 70.0)
           (-70.0 60.0)
  end
  begin
     id 8 
     name rtibia
     direction -0.34202 -0.939693 0   
     length 7.977   
     axis 0 0 -20   XYZ
    dof rx
    limits (-10.0 170.0)
 end
 begin
     id 9 
     name rfoot
     direction -0.0979793 -0.269196 0.958089   
     length 2.19857  
     axis -90 -7.62852e-016 -20   XYZ
    dof rx rz
    limits (-45.0 90.0)
           (-20.0 70.0)
  end
  begin
     id 10 
     name rtoes
     direction -1.53556e-011 -4.21868e-011 1   
     length 1.09838   
     axis -90 -7.62852e-016 -20   XYZ
    dof rx
    limits (-90.0 20.0)
  end
  begin
     id 11 
     name lowerback
     direction 0.0149039 0.998517 -0.0523597   
     length 2.10809   
     axis 0 0 0   XYZ
    dof rx ry rz
    limits (-20.0 45.0)
           (-30.0 30.0)
           (-30.0 30.0)
  end
  begin
     id 12 
     name upperback
     direction -0.00882659 0.999418 -0.0329624   
     length 2.1102   
     axis 0 0 0   XYZ
    dof rx ry rz
    limits (-20.0 45.0)
           (-30.0 30.0)
           (-30.0 30.0)
  end
  begin
     id 13 
     name thorax
     direction -0.0165585 0.999826 -0.0085833   
     length 2.11039   
     axis 0 0 0   XYZ
    dof rx ry rz
    limits (-20.0 45.0)
           (-30.0 30.0)
           (-30.0 30.0)
  end
  begin
     id 14 
     name lowerneck
     direction -0.0130877 0.999911 0.00260353   
     length 1.73253   
     axis 0 0 0   XYZ
    dof rx ry rz
    limits (-20.0 45.0)
           (-30.0 30.0)
           (-30.0 30.0)
  end
  begin
     id 15 
     name upperneck
     direction -0.0348454 0.928205 -0.370435   
     length 1.66692   
     axis 0 0 0   XYZ
    dof rx ry rz
    limits (-20.0 45.0)
           (-30.0 30.0)
           (-30.0 30.0)
  end
  begin
     id 16
     name head
     direction -0.00807754 0.992494 -0.122026  
     length 1.72765  
     axis 0 0 0   XYZ
    dof rx ry rz
    limits (-20.0 45.0)
           (-30.0 30.0)
           (-30.0 30.0)
  end
  begin
     id 17 
     name lclavicle
     direction 0.987582 0.144023 0.0627671  
     length 3.49235  
     axis 0 0 0   XYZ
    dof ry rz
    limits (-20.0 10.0)
           (0.0 20.0)
  end
  begin
     id 18 
     name lhumerus
     direction 1 -4.48958e-011 -1.45183e-018   
     length 5.41917   
     axis 180 -30 -90   XYZ
    dof rx ry rz
    limits (-60.0 90.0)
           (-90.0 90.0)
           (-90.0 90.0)
  end
  begin
     id 19
     name lradius
     direction 1 -4.48999e-011 5.75106e-027   
     length 2.44373   
     axis 180 -30 -90   XYZ
    dof rx
    limits (-10.0 170.0)
  end
  begin
     id 20
     name lwrist
     direction 1 -4.48987e-011 1.53461e-026   
     length 1.22186   
     axis -1.09697e-014 90 90   XYZ
    dof ry
    limits (-180.0 0.0)
 end
  begin
     id 21 
     name lhand
     direction 1 -4.48881e-011 3.06923e-026   
     length 0.727502   
     axis -1.95843e-014 90 90   XYZ
    dof rx rz
    limits (-90.0 90.0)
           (-45.0 45.0)
  end
  begin
     id 22 
     name lfingers
     direction 1 -4.48907e-011 6.13845e-026   
     length 0.586531   
     axis -3.91686e-014 90 90   XYZ
    dof rx
    limits (0.0 90.0)
  end
  begin
     id 23
     name lthumb
     direction 0.707107 -6.3487e-011 0.707107   
     length 0.842145   
     axis -90 45 2.85299e-015   XYZ
    dof rx rz
    limits (-45.0 45.0)
           (-45.0 45.0)
  end
  begin
     id 24 
     name rclavicle
     direction -0.980998 0.169556 0.0943023   
     length 3.29272  
     axis 0 0 0   XYZ 
    dof ry rz
    limits (-10.0 20.0)
           (-20.0 0.0)
  end
  begin
     id 25 
     name rhumerus
     direction -1 -1.83355e-005 2.45537e-005  
     length 5.58976   
     axis 180 30 90   XYZ
    dof rx ry rz
    limits (-90.0 60.0)
           (-90.0 90.0)
           (-90.0 90.0)
  end
  begin
     id 26 
     name rradius
     direction -1 -4.48967e-011 5.97228e-027   
     length 2.4806   
     axis 180 30 90   XYZ
    dof rx
    limits (-10.0 170.0)
  end
  begin
     id 27 
     name rwrist
     direction -1 -4.48963e-011 1.53461e-026   
     length 1.2403   
     axis -1.09697e-014 -90 -90   XYZ
    dof ry
    limits (-180.0 0.0)
  end
  begin
     id 28
     name rhand
     direction -1 -4.48881e-011 3.06923e-026   
     length 0.816009   
     axis -1.95843e-014 -90 -90   XYZ
    dof rx rz
    limits (-90.0 90.0)
           (-45.0 45.0)
  end
  begin
     id 29
     name rfingers
     direction -1 -4.49018e-011 6.13845e-026   
     length 0.657887   
     axis -3.91686e-014 -90 -90   XYZ
    dof rx
    limits (0.0 90.0)
  end
  begin
     id 30
     name rthumb
     direction -0.707107 -6.34872e-011 0.707107   
     length 0.944599   
     axis -90 -45 -2.85299e-015   XYZ
    dof rx rz
    limits (-45.0 45.0)
           (-45.0 45.0)
  end
:hierarchy
  begin
    root lhipjoint rhipjoint lowerback
    lhipjoint lfemur
    lfemur ltibia
    ltibia lfoot
    lfoot ltoes
    rhipjoint rfemur
    rfemur rtibia
    rtibia rfoot
    rfoot rtoes
    lowerback upperback
    upperback thorax
    thorax lowerneck lclavicle rclavicle
    lowerneck upperneck
    upperneck head
    lclavicle lhumerus
    lhumerus lradius
    lradius lwrist
    lwrist lhand lthumb
    lhand lfingers
    rclavicle rhumerus
    rhumerus rradius
    rradius rwrist
    rwrist rhand rthumb
    rhand rfingers
  end

#!OML:ASF F:\VICON\USERDATA\INSTALL\rory3\rory3.ASF
:FULLY-SPECIFIED
:DEGREES
52
root -0.224394 16.5395 -9.10675 32.0432 -32.9908 -5.74162
lowerback -17.2971 2.78225 -6.2082
upperback -11.0288 4.3041 0.484578
thorax -2.71229 2.45263 4.60954
lowerneck -11.1432 4.39135 4.24847
upperneck 34.0203 3.60155 4.4837
head 13.3093 2.62168 1.52061
rclavicle 1.42131e-014 -4.09496e-014
rhumerus -56.8772 15.9568 -94.2486
rradius 23.908
rwrist -17.0561
rhand 30.445 0.953316
rfingers 7.12502
rthumb 54.1066 -17.8124
lclavicle 1.42131e-014 -4.09496e-014
lhumerus -56.8632 -28.7193 99.4828
lradius 42.6099
lwrist 19.2291
lhand 32.4426 25.1767
lfingers 7.12502
lthumb 55.8885 42.6525
rfemur -14.4583 3.90733 25.4099
rtibia 36.636
rfoot 7.71414 -24.917
rtoes 33.7351
lfemur -47.1102 0.311217 -27.7499
ltibia 38.6014
lfoot -48.1311 25.4714
ltoes 31.5064
53
root -0.226173 16.5588 -9.07898 32.2223 -33.1345 -5.98298
lowerback -17.3475 2.95549 -6.3326
upperback -11.1574 4.5467 0.571665
thorax -2.88137 2.59475 4.79924
lowerneck -11.1027 4.24503 4.37844
upperneck 34.1906 3.36485 4.43519
head 13.3826 2.53066 1.45032
rclavicle 1.55425e-014 2.06736e-014
rhumerus -55.5009 12.8768 -90.6101
rradius 22.1419
rwrist -14.2665
rhand 30.3385 1.13899
rfingers 7.12502
rthumb 54.011 -17.6916
lclavicle 1.55425e-014 2.06736e-014
lhumerus -55.3516 -26.3557 97.4822
lradius 40.8721
lwrist 17.3311
lhand 32.2165 24.4598
lfingers 7.12502
lthumb 55.6878 42.0889
rfemur -14.6566 4.48677 24.7186
rtibia 36.7838
rfoot 7.11641 -25.8992
rtoes 37.1434
lfemur -46.932 0.203953 -27.5076
ltibia 38.3476
lfoot -48.3502 25.814
ltoes 31.1809
54
root -0.225006 16.572 -9.04114 32.3095 -32.9854 -6.23035
lowerback -17.5204 3.08382 -6.16817
upperback -11.1784 4.70314 0.635538
thorax -2.82541 2.66656 4.80602
lowerneck -10.9992 4.12817 4.48593
upperneck 34.2292 3.18227 4.4019
head 13.3827 2.46112 1.39107
rclavicle 6.00702e-015 -5.56597e-015
rhumerus -54.2346 9.45848 -86.8034
rradius 20.3717
rwrist -10.9676
rhand 29.8078 1.54308
rfingers 7.12502
rthumb 53.5341 -17.6051
lclavicle 6.00702e-015 -5.56597e-015
lhumerus -53.9316 -23.4658 95.1006
lradius 39.2859
lwrist 14.8677
lhand 31.5095 23.2061
lfingers 7.12502
lthumb 55.0587 41.3022
rfemur -14.6572 5.05241 24.1536
rtibia 37.0121
rfoot 6.51165 -28.2652
rtoes 38.8892
lfemur -46.7086 0.970802 -27.6609
ltibia 38.1088
lfoot -47.4554 25.7207
ltoes 30.4182
55
root -0.222706 16.5923 -9.00348 32.3869 -32.5806 -6.45656
lowerback -17.7818 3.13523 -5.83602
upperback -11.1665 4.73987 0.696786
thorax -2.65343 2.66373 4.70995
lowerneck -10.7493 4.02622 4.53335
upperneck 34.2003 3.03026 4.42232
head 13.3178 2.40208 1.36123
rclavicle -5.15908e-014 3.65764e-014
rhumerus -53.3153 5.87308 -82.9062
rradius 18.8912
rwrist -7.25623
rhand 29.1047 2.25235
rfingers 7.12502
rthumb 52.9002 -17.303
lclavicle -5.15908e-014 3.65764e-014
lhumerus -52.5892 -20.4619 92.6824
lradius 37.5563
lwrist 12.5124
lhand 30.7772 22.2442
lfingers 7.12502
lthumb 54.4043 40.8051
rfemur -14.5916 5.41002 23.6871
rtibia 37.2172
rfoot 5.5388 -29.8316
rtoes 41.5171
lfemur -46.4169 0.568409 -27.2482
ltibia 37.8567
lfoot -47.4176 26.0386
ltoes 29.9386
56
root -0.217362 16.6067 -8.97373 32.4289 -32.0474 -6.68282
lowerback -17.8525 3.16297 -5.54547
upperback -11.238 4.73774 0.855302
thorax -2.68121 2.65622 4.71794
lowerneck -10.4969 3.87758 4.45468
upperneck 34.3269 2.8608 4.36906
head 13.3163 2.31161 1.32691
rclavicle -9.56341e-014 -6.16232e-014
rhumerus -52.7992 2.16732 -78.6433
rradius 17.5844
rwrist -3.24996
rhand 28.3737 2.59036
rfingers 7.12502
rthumb 52.2391 -17.3722
lclavicle -9.56341e-014 -6.16232e-014
lhumerus -51.3213 -17.1208 90.2925
lradius 35.5735
lwrist 10.1652
lhand 30.7653 22.1298
lfingers 7.12502
lthumb 54.3936 40.6981
rfemur -14.5563 5.31103 23.2733
rtibia 37.3794
rfoot 5.55305 -30.7361
rtoes 42.6682
lfemur -46.2113 1.05344 -27.1502
ltibia 37.6919
lfoot -46.8134 25.3196
ltoes 29.6442
57
root -0.210492 16.6178 -8.94458 32.663 -31.6137 -7.13004
lowerback -17.9793 3.30426 -5.15114
upperback -11.3228 4.87188 1.02993
thorax -2.70299 2.71257 4.7065
lowerneck -10.4007 3.67783 4.35735
upperneck 34.4684 2.59335 4.36616
head 13.355 2.1841 1.30676
rclavicle 1.51076e-014 9.14409e-015
rhumerus -52.3423 -2.80282 -73.087
rradius 15.8634
rwrist 2.38145
rhand 27.6945 3.00469
rfingers 7.12502
rthumb 51.6228 -17.3224
lclavicle 1.51076e-014 9.14409e-015
lhumerus -50.1824 -13.3784 87.6685
lradius 33.6722
lwrist 7.43736
lhand 30.1635 22.301
lfingers 7.12502
lthumb 53.8539 41.2373
rfemur -14.6059 5.06314 22.9563
rtibia 37.4216
rfoot 7.52799 -32.2324
rtoes 39.7353
lfemur -46.007 0.3346 -26.295
ltibia 37.5488
lfoot -47.7724 24.6413
ltoes 31.6608
58
root -0.204015 16.6258 -8.90517 32.9503 -31.4421 -7.68525
lowerback -18.3135 3.51185 -4.67588
upperback -11.2821 5.08994 1.18789
thorax -2.4799 2.7961 4.66576
lowerneck -10.3466 3.53736 4.42686
upperneck 34.4803 2.43289 4.19334
head 13.353 2.1016 1.2031
rclavicle -5.14666e-014 -6.52014e-014
rhumerus -52.2765 -8.47355 -66.6857
rradius 14.1757
rwrist 9.03822
rhand 26.8799 4.15464
rfingers 7.12502
rthumb 50.8812 -16.5928
lclavicle -5.14666e-014 -6.52014e-014
lhumerus -49.0384 -9.10429 84.5844
lradius 31.6502
lwrist 4.48605
lhand 29.234 21.5949
lfingers 7.12502
lthumb 53.017 41.0765
rfemur -14.6418 4.84727 22.5109
rtibia 37.4499
rfoot 10.5983 -33.8462
rtoes 35.3375
lfemur -45.8059 0.703692 -26.1043
ltibia 37.4172
lfoot -47.168 25.3538
ltoes 31.0725
59
root -0.194524 16.6315 -8.8457 33.1858 -31.1756 -8.17513
lowerback -18.8027 3.70586 -4.12712
upperback -11.2082 5.27825 1.35869
thorax -2.13109 2.8576 4.60985
lowerneck -10.5442 3.41351 4.44057
upperneck 34.7428 2.25068 4.11723
head 13.5139 2.02018 1.15758
rclavicle 5.1566e-014 9.93923e-015
rhumerus -52.9752 -13.2795 -60.7951
rradius 13.2214
rwrist 14.4714
rhand 25.8961 4.74737
rfingers 7.12502
rthumb 49.9825 -16.4845
lclavicle 5.1566e-014 9.93923e-015
lhumerus -48.1209 -4.61817 81.4685
lradius 29.3775
lwrist 1.89687
lhand 28.1172 20.5293
lfingers 7.12502
lthumb 52.0065 40.6311
rfemur -14.4458 4.88418 21.9818
rtibia 37.4053
rfoot 9.00612 -36.2331
rtoes 38.1386
lfemur -45.452 -0.222238 -25.357
ltibia 37.2697
lfoot -48.0467 25.8105
ltoes 30.8233
60
root -0.185448 16.6422 -8.81649 33.0518 -30.6803 -8.34378
lowerback -18.7217 3.77761 -3.94468
upperback -11.1768 5.34709 1.51022
thorax -2.14266 2.89059 4.67421
lowerneck -10.827 3.26877 4.4795
upperneck 35.0436 2.02285 4.04657
head 13.7129 1.92487 1.10556
rclavicle 3.38741e-014 2.70347e-014
rhumerus -54.2923 -18.3115 -54.3123
rradius 12.174
rwrist 20.1633
rhand 24.5448 5.34175
rfingers 7.12502
rthumb 48.7429 -16.5168
lclavicle 3.38741e-014 2.70347e-014
lhumerus -48.1356 -0.256929 78.4041
lradius 28.6348
lwrist -0.721969
lhand 27.1302 20.5501
lfingers 7.12502
lthumb 51.1094 41.1702
rfemur -14.1894 4.37906 21.3877
rtibia 37.3963
rfoot 5.5259 -38.3741
rtoes 41.6078
lfemur -45.0544 -1.19787 -24.6576
ltibia 37.0947
lfoot -48.8842 25.6961
ltoes 31.312
61
root -0.174077 16.6509 -8.79005 32.9638 -30.1911 -8.46921
lowerback -18.7316 3.84099 -3.72808
upperback -11.1803 5.40029 1.60741
thorax -2.13473 2.9112 4.66508
lowerneck -10.7783 3.08065 4.64449
upperneck 35.1603 1.7854 3.80559
head 13.761 1.81447 0.948274
rclavicle 9.58701e-014 4.25399e-014
rhumerus -56.7839 -24.228 -46.0123
rradius 11.0004
rwrist 27.5113
rhand 22.9717 5.89
rfingers 7.12502
rthumb 47.2927 -16.6462
lclavicle 9.58701e-014 4.25399e-014
lhumerus -48.1233 3.24893 75.8179
lradius 27.3434
lwrist -2.25609
lhand 25.2984 21.0009
lfingers 7.12502
lthumb 49.435 42.5153
rfemur -14.0638 4.38101 20.783
rtibia 37.3943
rfoot 1.35399 -39.4479
rtoes 44.3377
lfemur -44.7672 -1.38146 -24.4229
ltibia 36.9061
lfoot -48.5928 25.9632
ltoes 31.074
